<svg width="500" height="500" viewBox="0 0 500 500" fill="none" xmlns="http://www.w3.org/2000/svg">
<rect width="500" height="500" rx="100" fill="#EA4335"/>
<g clip-path="url(#clip0_2_2)">
<path d="M381.25 231.25H347.629L296.875 180.496C295.14 178.747 293.075 177.361 290.8 176.417C288.524 175.474 286.084 174.992 283.621 175H151.891C148.811 175.006 145.78 175.77 143.066 177.225C140.351 178.68 138.037 180.782 136.328 183.344L101.57 235.422C100.549 236.965 100.003 238.774 100 240.625V296.875C100 301.848 101.975 306.617 105.492 310.133C109.008 313.65 113.777 315.625 118.75 315.625H138.672C140.737 323.691 145.428 330.841 152.006 335.947C158.584 341.052 166.673 343.824 175 343.824C183.327 343.824 191.416 341.052 197.994 335.947C204.572 330.841 209.263 323.691 211.328 315.625H288.672C290.737 323.691 295.428 330.841 302.006 335.947C308.584 341.052 316.673 343.824 325 343.824C333.327 343.824 341.416 341.052 347.994 335.947C354.572 330.841 359.263 323.691 361.328 315.625H381.25C386.223 315.625 390.992 313.65 394.508 310.133C398.025 306.617 400 301.848 400 296.875V250C400 245.027 398.025 240.258 394.508 236.742C390.992 233.225 386.223 231.25 381.25 231.25ZM151.891 193.75H283.621L321.121 231.25H126.953L151.891 193.75ZM175 325C171.292 325 167.666 323.9 164.583 321.84C161.5 319.78 159.096 316.851 157.677 313.425C156.258 309.999 155.887 306.229 156.61 302.592C157.334 298.955 159.12 295.614 161.742 292.992C164.364 290.37 167.705 288.584 171.342 287.86C174.979 287.137 178.749 287.508 182.175 288.927C185.601 290.346 188.53 292.75 190.59 295.833C192.65 298.916 193.75 302.542 193.75 306.25C193.75 311.223 191.775 315.992 188.258 319.508C184.742 323.025 179.973 325 175 325ZM325 325C321.292 325 317.666 323.9 314.583 321.84C311.5 319.78 309.096 316.851 307.677 313.425C306.258 309.999 305.887 306.229 306.61 302.592C307.334 298.955 309.12 295.614 311.742 292.992C314.364 290.37 317.705 288.584 321.342 287.86C324.979 287.137 328.749 287.508 332.175 288.927C335.601 290.346 338.53 292.75 340.59 295.833C342.65 298.916 343.75 302.542 343.75 306.25C343.75 311.223 341.775 315.992 338.258 319.508C334.742 323.025 329.973 325 325 325Z" fill="white"/>
</g>
<defs>
<clipPath id="clip0_2_2">
<rect width="300" height="300" fill="white" transform="translate(100 100)"/>
</clipPath>
</defs>
</svg>
